<?xml version="1.0" encoding="UTF-8"?>
<!-- Created with Inkscape (http://www.inkscape.org/) -->
<svg width="256" height="256" version="1.1" viewBox="0 0 67.733 67.733" xmlns="http://www.w3.org/2000/svg">
 <path d="m5.2917 0h57.15a5.2917 5.2917 45 0 1 5.2917 5.2917v57.15a5.2917 5.2917 135 0 1-5.2917 5.2917h-57.15a5.2917 5.2917 45 0 1-5.2917-5.2917v-57.15a5.2917 5.2917 135 0 1 5.2917-5.2917z" fill="#053161" stroke-width=".2657"/>
 <g fill="#bed9da" stroke-width=".26458" aria-label="[age]">
  <path d="m10.114 42.766h4.4498v-1.4732h-2.7661v-16.296h2.7661v-1.4732h-4.4498z"/>
  <path d="m20.307 39.91c2.0144 0 3.0668-1.0824 3.4276-1.834h0.0902v1.5634h1.7739v-7.6068c0-3.6681-2.7962-4.089-4.2694-4.089-1.7438 0-3.7282 0.60133-4.6302 2.706l1.6837 0.60133c0.39086-0.84186 1.3154-1.7438 3.0066-1.7438 1.6311 0 2.4354 0.86441 2.4354 2.3452v0.06013c0 0.85689-0.87192 0.78172-2.9766 1.0523-2.1422 0.27811-4.4799 0.75166-4.4799 3.3975 0 2.255 1.7438 3.5478 3.9387 3.5478zm0.2706-1.5935c-1.4131 0-2.4354-0.63139-2.4354-1.8641 0-1.353 1.2327-1.7739 2.6158-1.9543 0.75166-0.0902 2.7661-0.30066 3.0668-0.66146v1.6236c0 1.4432-1.1425 2.8563-3.2472 2.8563z"/>
  <path d="m33.506 44.209c2.7661 0 4.991-1.2628 4.991-4.2394v-11.876h-1.7138v1.834h-0.1804c-0.39086-0.60133-1.1125-1.9844-3.3674-1.9844-2.9164 0-4.9309 2.3151-4.9309 5.8629 0 3.608 2.1046 5.6525 4.9008 5.6525 2.255 0 2.9766-1.3229 3.3674-1.9543h0.15033v2.3452c0 1.9242-1.353 2.7962-3.2171 2.7962-2.0971 0-2.8338-1.1049-3.3073-1.7438l-1.4131 0.99219c0.72159 1.2102 2.1422 2.3151 4.7204 2.3151zm-0.06013-6.344c-2.2249 0-3.3674-1.6837-3.3674-4.089 0-2.3452 1.1125-4.2394 3.3674-4.2394 2.1648 0 3.3073 1.7438 3.3073 4.2394 0 2.5556-1.1726 4.089-3.3073 4.089z"/>
  <path d="m46.585 39.88c2.3452 0 4.059-1.1726 4.6001-2.9164l-1.7138-0.48106c-0.451 1.2027-1.4958 1.804-2.8864 1.804-2.0821 0-3.5178-1.3455-3.6004-3.8184h8.381v-0.75166c0-4.2995-2.5556-5.7727-4.9609-5.7727-3.1269 0-5.2015 2.4654-5.2015 6.0133s2.0445 5.9231 5.3819 5.9231zm-3.6004-6.9453c0.12027-1.7965 1.3906-3.3975 3.42-3.3975 1.9242 0 3.157 1.4432 3.157 3.3975z"/>
  <path d="m57.619 23.524h-4.4498v1.4732h2.7661v16.296h-2.7661v1.4732h4.4498z"/>
 </g>
</svg>
